<?xml version="1.0" encoding="UTF-8"?>
<svg width="500px" height="500px" viewBox="0 0 500 500" version="1.1" xmlns="http://www.w3.org/2000/svg" xmlns:xlink="http://www.w3.org/1999/xlink">
    <title>Artboard Copy</title>
    <g id="Artboard-Copy" stroke="none" stroke-width="1" fill="none" fill-rule="evenodd">
        <rect id="Rectangle" fill="#000000" x="-23" y="0" width="527" height="521"></rect>
        <path d="M75.9,151.111573 L98.5038274,164.260473 C101.608339,159.568943 103.921527,156.092123 105.44339,153.830012 C114.659804,140.130661 122.569053,129.67791 128.804929,123.321237 C149.577844,102.145923 175.291731,86.5587608 204.737386,78.1603634 C250.726202,65.0435779 290.71374,69.2606478 324.7,90.8115731 L338.82747,68.9299523 C300.244855,46.5929404 260.10812,39.2744509 218.417265,46.9744836 C196.672064,50.9906824 166.64399,59.6763093 144.8,73.3115731 C131.442488,81.649482 114.109154,98.249482 92.8,123.111573 L75.9,151.111573 Z" id="Path-2" fill="#6CE1F3"></path>
        <path d="M72,267.111573 L72,286.406062 C80.5085419,286.600481 86.9076035,286.600481 91.197185,286.406062 C100.808315,285.970451 111.823494,284.73348 113.9,283.871114 C119.1,281.711573 135.18779,263.023146 132.1,256.511573 C130.041474,252.170524 135.438799,266.707813 148.291977,300.123438 C155.589233,309.727113 163.777712,309.727113 172.857413,300.123438 C175.735836,297.078907 186.879071,229.859185 189.256332,222.717771 C192.670716,212.46079 193.551939,207.292057 191.9,207.211573 L209.113932,314.631442 L218.058211,346.709481 C224.887251,354.307185 233.208599,354.307185 243.022255,346.709481 C247.411536,343.311312 251.984221,316.482829 255.178144,309.696612 C257.809559,304.10557 260.583512,300.377223 263.5,298.511573 C260.630344,294.856664 274.609447,286.446691 305.437307,273.281655 C336.265167,260.116619 358.052731,241.259925 370.8,216.711573 L392,242.611573 C396.77522,244.990419 399.162831,243.33849 399.162831,237.655787 C399.162831,231.973083 402.754495,193.861567 409.937823,123.321237 L405.303366,120.742707 C335.101122,151.372906 300,167.862528 300,170.211573 C300,172.560618 309.625367,178.202732 328.8761,187.137914 L305.437307,216.711573 C292.674503,226.194018 283.783793,232.055332 278.765179,234.295514 C271.237258,237.655787 242.3634,257.090103 234.593843,292.611573 C229.414139,316.292553 228.251808,321.987566 231.106849,309.696612 L208.337618,176.932239 C204.458617,166.285862 198.979411,161.512307 191.9,162.611573 C184.820589,163.710839 180.395821,168.484395 178.625695,176.932239 L159.392049,264.597937 L144.9,225.711573 C135.856728,218.554879 128.191662,218.554879 121.904804,225.711573 C112.474517,236.446614 121.010407,251.43894 106.78077,264.597937 C103.120313,267.982981 95.2799098,266.338854 91.197185,267.111573 C86.8651548,267.931477 80.4660932,267.931477 72,267.111573 Z" id="Path-3" fill="#6CE1F3"></path>
        <path d="M131.7,356.611573 L113.9,371.911573 C154.632463,416.818502 203.283371,436.618502 259.852725,431.311573 C290.765224,428.411585 337.490037,416.830128 368.239126,391.976418 C377.080743,384.829963 393.04491,367.251974 407.620139,349.57199 C416.601647,338.677278 424.061601,322.723806 430,301.711573 L407.620139,289.711573 C381.846204,353.769021 334.356133,391.024118 265.149925,401.476864 C236.562237,405.794683 221.200358,400.175348 201.04985,395.822235 C181.962758,391.698851 158.846141,378.628631 131.7,356.611573 Z" id="Path-4" stroke="#979797" fill="#6CE1F3"></path>
    </g>
</svg>